<?xml version="1.0" standalone="no"?>
<!DOCTYPE svg PUBLIC "-//W3C//DTD SVG 20010904//EN"
 "http://www.w3.org/TR/2001/REC-SVG-20010904/DTD/svg10.dtd">
<svg version="1.0" xmlns="http://www.w3.org/2000/svg"
 width="2204.000000pt" height="1883.000000pt" viewBox="0 0 2204.000000 1883.000000"
 preserveAspectRatio="xMidYMid meet">

<g transform="translate(0.000000,1883.000000) scale(0.100000,-0.100000)"
fill="#000000" stroke="none">
<path d="M10804 17741 c-22 -10 -50 -31 -62 -45 -29 -37 -47 -95 -34 -108 14
-14 29 -3 36 28 17 68 71 104 154 104 62 0 109 -30 139 -88 22 -44 25 -46 45
-40 15 5 -6 67 -34 104 -30 37 -93 64 -153 64 -27 0 -68 -9 -91 -19z"/>
<path d="M11980 17744 c-47 -20 -74 -47 -95 -94 -17 -38 -15 -75 5 -68 5 2 20
23 32 48 31 61 77 90 143 90 38 0 61 -6 86 -23 30 -20 40 -35 69 -97 11 -24
25 -8 24 26 -3 99 -153 166 -264 118z"/>
<path d="M10105 17639 c-106 -12 -122 -16 -145 -39 -23 -23 -26 -76 -7 -101
26 -34 52 -39 148 -29 50 5 93 10 94 12 9 9 9 168 0 167 -5 -1 -46 -6 -90 -10z"/>
<path d="M9165 17506 c-93 -19 -251 -52 -350 -75 -153 -34 -183 -44 -202 -66
-13 -15 -23 -35 -23 -46 0 -34 29 -78 56 -85 15 -4 108 12 232 39 114 26 272
58 352 74 127 24 149 30 174 55 24 24 27 34 22 61 -8 38 -32 64 -66 71 -14 3
-101 -10 -195 -28z"/>
<path d="M12760 17483 c0 -27 -3 -64 -6 -84 l-6 -36 163 -32 c90 -18 240 -50
334 -72 93 -21 178 -39 188 -39 28 0 67 45 67 79 0 71 -12 77 -245 130 -146
32 -478 101 -492 101 -2 0 -3 -21 -3 -47z"/>
<path d="M7800 17141 c-293 -103 -462 -170 -487 -193 -47 -44 -12 -138 51
-138 14 0 101 29 193 64 93 35 242 89 333 120 174 59 210 82 210 132 0 32 -51
84 -82 83 -13 0 -111 -31 -218 -68z"/>
<path d="M14024 17176 c-35 -29 -39 -86 -8 -116 10 -10 102 -48 204 -83 102
-35 250 -90 330 -121 79 -31 158 -56 175 -56 67 0 102 92 53 137 -35 32 -658
263 -708 263 -10 0 -31 -11 -46 -24z"/>
<path d="M10833 17164 c-9 -25 23 -76 96 -150 126 -129 278 -204 457 -226 139
-18 285 4 446 67 12 5 21 -2 32 -24 29 -56 125 -149 171 -167 79 -30 156 0
195 76 40 79 13 171 -80 273 -47 52 -48 53 -32 79 13 22 13 29 3 42 -8 9 -19
16 -26 16 -6 0 -50 -37 -96 -82 -94 -92 -182 -149 -278 -178 -306 -95 -609 -7
-796 231 -47 60 -80 75 -92 43z"/>
<path d="M15285 16655 c-26 -25 -32 -63 -15 -95 5 -10 81 -55 167 -100 87 -46
232 -123 322 -173 105 -58 174 -90 194 -90 61 0 99 84 60 131 -20 24 -253 154
-485 272 -172 88 -204 95 -243 55z"/>
<path d="M5450 16308 c-34 -18 -51 -35 -70 -73 l-25 -50 -40 13 c-106 35 -215
-40 -215 -148 0 -94 52 -153 195 -221 135 -64 224 -94 256 -86 30 8 49 47 101
200 20 60 32 119 35 172 4 70 2 86 -19 125 -27 50 -90 90 -143 90 -17 0 -51
-10 -75 -22z"/>
<path d="M6335 16317 c-70 -32 -112 -119 -102 -214 7 -63 91 -320 114 -345 24
-27 62 -22 174 22 198 79 252 117 288 201 29 67 22 117 -26 170 -47 52 -97 67
-164 50 -28 -7 -51 -12 -52 -10 -1 2 -11 21 -22 43 -11 21 -34 49 -51 63 -39
30 -116 39 -159 20z"/>
<path d="M16847 16267 c-7 -19 5 -29 64 -51 62 -22 127 -66 173 -117 34 -36
40 -39 54 -26 13 14 12 19 -12 47 -82 98 -262 192 -279 147z"/>
<path d="M17752 16234 c-70 -34 -182 -129 -182 -153 0 -32 34 -19 90 32 53 49
101 78 193 116 16 6 27 17 25 24 -8 24 -55 17 -126 -19z"/>
<path d="M16863 15980 c-45 -27 -63 -68 -63 -142 0 -100 49 -158 135 -158 86
0 135 58 135 160 0 75 -21 120 -69 145 -41 21 -99 19 -138 -5z"/>
<path d="M17715 15980 c-43 -28 -65 -75 -65 -138 0 -100 50 -162 133 -162 88
0 137 57 137 160 0 75 -21 120 -69 145 -41 21 -100 19 -136 -5z"/>
<path d="M6465 15454 c-221 -36 -481 -49 -698 -35 -100 6 -229 19 -287 28 -58
9 -127 16 -155 17 l-50 1 1 -37 c2 -57 74 -170 173 -269 69 -69 103 -94 171
-127 122 -60 193 -76 335 -76 188 1 328 46 457 148 101 81 238 272 238 333 0
21 -19 44 -34 42 -6 -1 -74 -12 -151 -25z"/>
<path d="M17283 15380 c-125 -26 -224 -123 -239 -234 -6 -43 -5 -48 12 -44 13
2 21 16 26 46 15 87 83 158 181 187 171 51 350 -39 375 -187 5 -29 13 -44 25
-46 46 -9 -1 135 -64 195 -73 69 -211 105 -316 83z"/>
<path d="M4303 15041 c-76 -71 -195 -187 -265 -257 -148 -150 -160 -174 -110
-224 17 -16 41 -30 54 -30 26 0 88 35 88 49 0 5 110 114 245 242 226 214 245
235 245 266 0 46 -37 83 -84 83 -30 0 -51 -15 -173 -129z"/>
<path d="M18047 14633 l-69 -45 24 -25 c28 -31 70 -53 98 -53 12 0 35 14 52
30 25 26 29 36 24 62 -6 29 -42 79 -55 77 -3 0 -37 -21 -74 -46z"/>
<path d="M3483 14175 c-27 -19 -191 -219 -342 -417 -124 -163 -137 -195 -101
-241 17 -21 30 -27 60 -27 48 0 57 8 175 165 54 72 144 186 200 255 55 69 109
136 118 150 52 76 -36 167 -110 115z"/>
<path d="M18515 14158 c-31 -18 -44 -40 -45 -74 0 -25 29 -67 153 -221 83
-105 184 -234 222 -286 90 -123 126 -141 181 -93 21 17 28 33 28 59 0 39 -69
137 -312 440 -147 184 -175 205 -227 175z"/>
<path d="M9660 12843 c-19 -2 -84 -13 -145 -24 -659 -123 -1113 -594 -1117
-1159 0 -58 3 -124 6 -146 l7 -41 -73 10 c-95 12 -309 3 -423 -18 -323 -58
-644 -235 -875 -483 -338 -360 -472 -857 -354 -1311 58 -222 199 -436 360
-547 30 -21 54 -39 54 -41 0 -3 -22 -50 -50 -106 -102 -209 -131 -454 -79
-687 11 -52 11 -55 -12 -70 -13 -8 -62 -47 -109 -86 -372 -309 -584 -844 -531
-1339 38 -348 164 -645 379 -888 180 -204 453 -377 722 -457 92 -28 125 -33
258 -37 l152 -5 0 -123 c0 -336 118 -634 389 -982 218 -281 498 -504 767 -612
197 -80 444 -123 699 -124 186 0 276 10 434 49 412 102 645 318 768 710 l28
89 0 3815 c0 4149 4 3868 -56 4020 -124 309 -423 526 -809 585 -86 13 -299 18
-390 8z m391 -198 c288 -50 516 -208 620 -430 60 -127 59 -115 59 -877 l0
-697 -37 -8 c-21 -4 -110 -8 -198 -7 -144 1 -169 4 -250 28 -185 56 -330 159
-429 304 -153 224 -135 511 45 703 50 53 59 68 59 100 0 67 -64 110 -126 84
-41 -17 -137 -123 -178 -198 -184 -331 -88 -745 232 -999 86 -68 244 -148 350
-177 146 -40 336 -49 495 -24 l37 6 0 -790 0 -790 -41 -59 c-56 -80 -93 -119
-162 -166 -218 -149 -424 -169 -631 -60 -122 63 -253 216 -286 333 -8 28 -4
36 50 101 73 87 143 226 170 338 25 105 27 277 4 388 -30 150 -110 305 -214
414 -55 57 -70 68 -98 68 -44 0 -69 -14 -88 -51 -22 -43 -12 -69 55 -150 117
-139 173 -287 173 -464 1 -181 -53 -320 -175 -451 -131 -141 -288 -220 -463
-231 -201 -14 -427 80 -556 229 -102 117 -114 128 -147 128 -61 0 -108 -56
-94 -112 16 -63 144 -204 253 -278 84 -57 187 -103 290 -131 68 -18 111 -23
215 -22 153 0 241 20 373 84 46 22 85 39 86 37 2 -2 19 -34 39 -73 106 -202
297 -347 532 -401 84 -19 238 -15 330 10 87 23 232 97 314 161 l71 55 0 -1510
c0 -831 -2 -1510 -5 -1510 -2 0 -30 16 -60 36 -68 43 -167 86 -255 110 -91 25
-319 26 -410 1 -311 -84 -550 -356 -609 -691 -13 -73 -14 -187 -1 -241 17 -73
77 -103 140 -70 37 19 40 31 43 190 3 113 7 140 31 203 81 217 246 375 442
426 87 22 232 21 328 -4 106 -27 224 -91 296 -160 l60 -58 0 -419 c0 -392 -1
-423 -21 -493 -43 -156 -154 -337 -254 -412 -109 -83 -286 -157 -460 -193
-106 -23 -373 -31 -501 -16 -363 43 -594 142 -857 368 -136 118 -268 272 -387
453 -113 172 -183 337 -215 502 -18 96 -21 272 -5 360 40 218 190 433 365 524
l50 26 81 -49 c246 -149 553 -159 830 -27 97 46 134 81 134 129 0 27 -8 44
-29 66 -39 39 -75 37 -148 -5 -32 -19 -94 -47 -138 -62 -71 -25 -94 -28 -210
-28 -115 0 -140 3 -212 27 -165 55 -307 179 -388 339 -59 117 -79 214 -72 337
10 162 69 302 177 425 69 77 79 104 57 151 -21 45 -71 62 -120 41 -84 -35
-234 -273 -279 -441 -28 -106 -30 -307 -5 -410 21 -82 90 -230 141 -300 l36
-50 -22 -15 c-170 -114 -297 -264 -365 -430 -22 -53 -34 -70 -53 -76 -265 -69
-656 67 -931 325 -487 455 -569 1219 -193 1788 63 95 175 218 261 285 l61 47
34 -52 c112 -167 281 -285 461 -324 95 -20 249 -13 337 16 86 27 189 90 218
132 29 42 24 84 -14 117 -38 33 -84 29 -147 -13 -109 -74 -268 -96 -399 -55
-180 55 -329 222 -390 435 -18 66 -22 104 -21 210 1 157 21 246 88 382 126
255 384 377 621 293 71 -24 116 -15 139 30 47 91 -26 154 -208 179 -169 24
-379 -37 -506 -146 l-42 -35 -42 28 c-165 109 -285 298 -333 524 -23 106 -25
343 -5 445 48 241 158 448 340 637 118 123 232 210 370 281 196 102 360 145
576 154 118 5 278 -7 292 -21 2 -2 -8 -29 -23 -60 -70 -153 -65 -356 12 -508
40 -78 113 -99 162 -45 34 38 36 62 7 124 -38 83 -52 177 -37 253 33 181 155
302 332 330 84 13 163 0 247 -40 36 -16 76 -30 90 -30 37 0 83 51 83 92 0 47
-22 74 -89 108 -83 41 -166 60 -268 60 -101 0 -179 -17 -272 -61 -35 -16 -66
-28 -68 -26 -2 2 -9 43 -15 91 -9 66 -9 107 1 178 61 464 433 799 996 899 127
22 352 24 466 4z"/>
<path d="M10205 7914 c-35 -38 -32 -76 14 -153 58 -98 74 -151 79 -273 3 -89
1 -119 -17 -176 -65 -216 -279 -372 -511 -372 -199 0 -389 124 -479 312 -22
47 -48 91 -57 99 -9 7 -34 14 -56 14 -51 0 -88 -39 -88 -90 0 -78 88 -223 197
-325 212 -199 499 -252 764 -141 193 81 341 240 406 436 24 71 27 96 27 220 1
108 -3 154 -17 200 -27 89 -83 199 -121 239 -28 30 -40 36 -75 36 -33 0 -47
-6 -66 -26z"/>
<path d="M12080 12844 c-14 -2 -59 -9 -100 -15 -165 -24 -364 -107 -487 -202
-171 -132 -295 -324 -335 -517 -11 -54 -13 -739 -13 -3880 l0 -3815 28 -89
c135 -430 406 -653 902 -742 139 -24 439 -25 590 0 269 43 447 104 633 218
308 188 624 544 793 893 99 204 142 394 137 595 l-3 120 125 0 c72 0 155 7
195 15 292 62 623 254 812 472 124 143 237 334 298 503 73 203 107 466 87 677
-34 361 -158 653 -393 924 -49 57 -190 182 -248 219 -23 15 -23 18 -12 70 52
233 23 480 -79 687 -27 56 -50 103 -50 106 0 2 24 20 54 41 68 47 160 143 215
225 195 288 241 699 120 1079 -131 412 -478 776 -901 947 -230 92 -519 134
-741 106 l-58 -7 7 40 c11 67 6 246 -10 326 -104 536 -593 927 -1248 999 -92
10 -263 13 -318 5z m404 -205 c306 -49 605 -207 771 -407 162 -195 246 -453
217 -668 -6 -48 -13 -89 -15 -91 -2 -2 -33 10 -68 26 -93 44 -171 61 -272 61
-102 0 -185 -19 -268 -60 -67 -34 -89 -61 -89 -108 0 -41 46 -92 83 -92 14 0
54 14 90 30 84 40 163 53 247 40 177 -28 299 -149 332 -330 15 -76 1 -170 -37
-253 -29 -62 -27 -86 7 -124 49 -54 122 -33 162 45 77 152 82 355 12 508 -15
31 -25 58 -23 60 10 10 150 24 248 24 351 0 680 -137 948 -395 204 -197 331
-422 382 -680 20 -102 18 -339 -5 -445 -48 -226 -168 -415 -333 -524 l-42 -28
-42 35 c-127 109 -337 170 -506 146 -182 -25 -255 -88 -208 -179 23 -45 68
-54 139 -30 237 84 495 -38 621 -293 67 -136 87 -225 88 -382 1 -106 -3 -144
-21 -210 -61 -213 -210 -380 -390 -435 -131 -41 -290 -19 -399 55 -63 42 -109
46 -147 13 -38 -33 -43 -75 -14 -117 29 -42 132 -105 218 -132 88 -29 242 -36
337 -16 180 39 349 157 461 324 l34 52 61 -47 c231 -181 399 -463 469 -785 32
-147 32 -417 0 -564 -100 -461 -384 -807 -807 -984 -177 -74 -372 -101 -500
-70 -50 12 -50 12 -78 81 -60 147 -189 308 -317 396 -40 27 -67 52 -63 58 4 6
22 32 40 57 45 64 107 199 129 284 26 101 24 302 -4 410 -45 168 -195 406
-279 441 -70 30 -143 -26 -129 -98 3 -17 33 -59 67 -96 72 -79 139 -210 163
-319 72 -328 -126 -673 -447 -780 -72 -24 -97 -27 -212 -27 -116 0 -139 3
-209 28 -44 15 -107 43 -141 62 -76 42 -107 43 -146 5 -21 -22 -29 -39 -29
-66 0 -48 37 -83 134 -129 277 -132 584 -122 830 27 l81 49 50 -26 c152 -79
300 -273 351 -461 25 -91 30 -310 10 -418 -53 -283 -240 -600 -516 -877 -208
-208 -425 -337 -674 -400 -324 -82 -670 -78 -938 11 -246 82 -386 197 -487
404 -79 161 -81 176 -81 648 l0 419 60 58 c72 69 190 133 296 160 96 25 241
26 328 4 196 -51 361 -209 442 -426 24 -63 28 -90 30 -203 4 -158 7 -171 44
-190 63 -33 123 -3 140 70 13 54 12 168 -1 241 -59 333 -300 608 -604 689
-206 55 -479 12 -663 -105 -34 -22 -65 -40 -67 -40 -3 0 -5 679 -5 1510 l0
1510 71 -55 c82 -64 227 -138 314 -161 33 -9 103 -18 156 -21 128 -7 224 14
354 77 159 77 275 188 351 335 20 38 38 71 40 73 1 2 40 -15 86 -37 132 -64
220 -84 373 -84 103 -1 147 4 215 22 184 48 365 164 475 304 35 43 65 91 68
105 11 59 -33 112 -94 112 -33 0 -45 -11 -147 -128 -97 -112 -255 -197 -415
-222 -221 -36 -436 44 -603 222 -122 132 -177 273 -176 453 0 177 56 325 173
464 67 81 77 107 55 150 -19 37 -44 51 -88 51 -28 0 -43 -11 -98 -68 -104
-109 -184 -264 -214 -414 -23 -111 -21 -283 4 -388 27 -112 97 -251 170 -339
l60 -71 -19 -50 c-31 -81 -70 -140 -140 -209 -178 -178 -431 -221 -653 -111
-127 63 -203 127 -277 234 l-41 59 0 790 0 790 38 -6 c158 -25 348 -16 494 24
106 29 264 109 350 177 373 297 435 816 133 1129 -66 68 -73 73 -113 73 -57 0
-92 -33 -92 -88 0 -33 8 -47 59 -101 180 -191 198 -472 47 -700 -97 -145 -244
-250 -431 -307 -81 -24 -106 -27 -250 -28 -88 -1 -177 3 -198 7 l-38 8 3 722
3 722 26 67 c41 105 87 176 169 258 217 219 539 297 954 229z"/>
<path d="M11714 7904 c-38 -40 -94 -150 -121 -239 -14 -46 -18 -92 -17 -200 0
-124 3 -149 27 -220 65 -196 213 -355 406 -436 265 -111 552 -58 764 141 109
102 197 247 197 325 0 51 -37 90 -88 90 -22 0 -47 -7 -56 -14 -9 -8 -35 -52
-57 -99 -163 -340 -592 -417 -858 -154 -115 114 -157 228 -149 401 6 110 23
168 79 262 46 77 49 115 14 153 -19 20 -33 26 -66 26 -35 0 -47 -6 -75 -36z"/>
<path d="M1935 12605 c-39 -21 -76 -56 -98 -95 -16 -26 -16 -31 -4 -36 10 -3
35 15 69 50 49 50 58 56 95 56 23 0 54 -5 69 -10 36 -14 56 3 31 27 -24 24
-123 29 -162 8z"/>
<path d="M3127 12605 c-31 -18 -31 -42 -1 -37 96 15 114 14 147 -8 19 -13 44
-38 57 -57 22 -32 43 -42 54 -24 8 12 -47 84 -85 112 -42 29 -131 37 -172 14z"/>
<path d="M20325 12481 c-46 -12 -88 -36 -124 -73 -51 -51 -66 -77 -53 -90 8
-8 27 5 69 49 75 77 123 93 206 69 69 -20 67 -20 67 3 0 30 -105 57 -165 42z"/>
<path d="M19205 12446 c-51 -23 -135 -106 -135 -132 0 -25 35 -14 55 17 30 45
101 91 151 97 25 2 61 -2 89 -11 42 -15 47 -15 52 -1 7 19 -8 30 -57 44 -55
16 -101 12 -155 -14z"/>
<path d="M1984 12251 c-53 -32 -64 -57 -64 -142 0 -63 4 -81 22 -104 23 -30
74 -55 110 -55 37 0 90 34 110 71 25 46 24 143 -1 185 -36 59 -119 80 -177 45z"/>
<path d="M3083 12255 c-50 -21 -73 -68 -73 -145 0 -78 21 -119 73 -143 43 -21
67 -21 112 -3 51 22 75 68 75 146 0 126 -83 191 -187 145z"/>
<path d="M19273 12191 c-48 -22 -71 -53 -85 -113 -16 -72 -1 -135 42 -182 38
-40 40 -41 105 -41 65 0 67 1 106 42 39 42 39 42 39 125 0 101 -19 139 -83
168 -53 24 -71 24 -124 1z"/>
<path d="M20314 12185 c-27 -13 -59 -39 -71 -57 -25 -38 -40 -103 -25 -112 6
-3 41 9 78 26 61 29 82 33 172 36 113 5 119 10 82 62 -26 37 -96 70 -146 70
-23 0 -62 -11 -90 -25z"/>
<path d="M2502 11727 c-49 -15 -122 -85 -148 -142 -33 -70 -33 -180 0 -250 46
-101 127 -155 231 -155 104 0 185 54 231 155 33 70 33 180 0 250 -27 60 -103
131 -155 145 -45 12 -116 11 -159 -3z"/>
<path d="M20346 11546 c-100 -141 -265 -258 -403 -286 -81 -17 -193 -7 -283
24 -109 39 -120 41 -120 23 0 -20 22 -32 114 -63 190 -65 381 -31 553 100 89
67 213 215 213 253 0 30 -31 8 -74 -51z"/>
<path d="M1575 10591 c-44 -18 -51 -37 -135 -371 -69 -275 -80 -326 -80 -371
0 -52 27 -79 79 -79 53 0 74 29 96 128 22 102 109 449 135 537 25 88 25 98 -2
129 -26 29 -63 39 -93 27z"/>
<path d="M20413 10545 c-38 -26 -36 -56 16 -253 56 -214 64 -247 97 -396 13
-61 31 -120 39 -132 32 -49 127 -34 142 24 8 32 -11 128 -78 397 -71 283 -88
338 -111 358 -25 21 -76 22 -105 2z"/>
<path d="M1266 9239 c-24 -22 -28 -36 -46 -169 -33 -251 -60 -577 -50 -604 11
-30 47 -56 78 -56 13 0 36 13 52 28 25 25 28 37 35 123 4 51 18 191 31 309 40
349 39 332 18 358 -29 35 -84 40 -118 11z"/>
<path d="M20697 9209 c-35 -20 -36 -51 -12 -255 13 -110 29 -264 35 -344 6
-80 13 -155 16 -168 13 -63 93 -84 141 -36 25 25 25 28 19 117 -9 120 -41 437
-57 555 -14 113 -33 142 -87 142 -20 0 -45 -5 -55 -11z"/>
<path d="M20099 7407 c-51 -27 -105 -97 -95 -123 5 -14 16 -7 59 39 55 59 87
73 140 63 61 -11 70 -11 74 2 6 16 -56 42 -100 42 -19 0 -54 -10 -78 -23z"/>
<path d="M21288 7418 c-36 -13 -41 -54 -5 -44 89 27 149 10 195 -55 26 -38 62
-52 62 -25 0 21 -76 102 -114 120 -38 18 -96 20 -138 4z"/>
<path d="M640 7121 c0 -15 35 -40 136 -97 123 -70 134 -79 118 -91 -10 -7 -71
-43 -136 -80 -83 -47 -118 -72 -118 -85 0 -32 35 -20 191 70 110 63 154 93
154 106 0 13 -44 44 -155 107 -85 48 -163 88 -172 89 -11 0 -18 -7 -18 -19z"/>
<path d="M1705 7049 c-95 -56 -150 -94 -150 -105 0 -19 300 -197 324 -192 44
9 16 36 -114 111 -74 43 -135 80 -135 81 0 2 56 36 124 75 128 74 152 93 141
111 -12 20 -41 7 -190 -81z"/>
<path d="M20142 7070 c-54 -33 -73 -74 -70 -155 l3 -70 145 0 145 0 3 70 c2
56 -2 77 -18 103 -28 45 -76 72 -130 72 -27 0 -58 -8 -78 -20z"/>
<path d="M21222 7070 c-54 -33 -73 -74 -70 -155 l3 -70 145 0 145 0 3 65 c3
78 -17 124 -67 157 -44 29 -113 31 -159 3z"/>
<path d="M20625 6486 c-212 -41 -388 -173 -489 -365 -38 -73 -45 -108 -22
-117 7 -3 67 13 132 35 138 46 233 67 376 82 216 24 487 -13 697 -95 98 -39
118 -18 71 78 -43 87 -124 191 -189 243 -68 54 -175 107 -256 128 -86 22 -236
27 -320 11z"/>
<path d="M1193 6355 c-29 -8 -72 -24 -95 -36 -85 -43 -201 -190 -185 -233 9
-24 20 -14 55 47 37 66 108 132 177 163 105 48 259 40 352 -19 50 -31 116
-104 142 -156 21 -40 51 -56 51 -26 0 27 -37 89 -84 141 -99 111 -266 158
-413 119z"/>
<path d="M1546 5149 c-39 -31 -34 -72 38 -306 92 -294 151 -455 177 -475 47
-39 129 -3 129 57 0 14 -38 142 -85 283 -47 141 -96 296 -111 345 -21 74 -30
89 -54 102 -39 20 -62 19 -94 -6z"/>
<path d="M20423 5150 c-30 -12 -35 -24 -102 -242 -33 -106 -83 -258 -110 -336
-55 -155 -56 -178 -14 -212 34 -27 76 -25 103 3 13 13 42 79 67 148 69 194
173 536 173 567 -1 31 -16 54 -47 70 -25 14 -40 14 -70 2z"/>
<path d="M2012 3860 c-41 -39 -38 -60 29 -207 106 -233 248 -507 275 -530 14
-13 38 -23 55 -23 37 0 79 39 79 75 0 14 -47 119 -104 233 -57 114 -127 259
-155 322 -29 63 -62 123 -73 133 -27 23 -79 22 -106 -3z"/>
<path d="M19933 3848 c-11 -13 -42 -70 -68 -128 -26 -58 -94 -198 -151 -312
-60 -118 -104 -218 -104 -235 0 -60 55 -96 111 -72 23 9 44 41 103 153 121
230 246 505 246 540 0 68 -92 103 -137 54z"/>
<path d="M4093 2605 c-38 -16 -47 -52 -10 -41 92 28 148 10 199 -60 31 -44 50
-51 56 -23 4 22 -64 97 -109 119 -45 23 -91 25 -136 5z"/>
<path d="M2929 2587 c-36 -24 -82 -84 -76 -101 7 -22 26 -15 47 19 38 61 81
74 209 62 13 -1 26 4 28 10 7 19 -41 33 -111 33 -49 0 -71 -5 -97 -23z"/>
<path d="M18193 2374 c-8 -21 0 -27 149 -109 65 -37 116 -70 113 -75 -3 -5
-59 -38 -124 -74 -136 -76 -152 -90 -129 -112 14 -14 32 -6 179 78 94 53 165
100 167 110 2 12 -39 40 -157 107 -88 50 -167 91 -176 91 -9 0 -18 -7 -22 -16z"/>
<path d="M19265 2303 c-83 -48 -153 -91 -157 -97 -13 -20 7 -35 164 -125 145
-84 162 -91 176 -77 22 22 8 35 -116 105 -163 92 -161 76 -25 155 136 79 154
93 146 112 -10 25 -37 15 -188 -73z"/>
<path d="M2925 2171 c-66 -30 -115 -104 -115 -174 0 -34 32 -13 45 28 17 57
41 91 80 109 79 38 160 8 205 -77 14 -26 30 -45 35 -44 20 7 15 43 -14 88 -51
81 -149 110 -236 70z"/>
<path d="M4090 2174 c-19 -8 -43 -23 -53 -32 -23 -20 -57 -85 -57 -107 0 -21
29 -19 37 3 11 32 54 82 83 97 39 20 98 19 140 -4 37 -19 80 -88 80 -127 0
-12 6 -24 14 -27 28 -11 33 13 16 75 -30 106 -158 166 -260 122z"/>
<path d="M18337 1774 c-18 -18 -3 -34 46 -49 132 -43 240 -128 286 -225 21
-45 26 -69 26 -135 -1 -100 -24 -155 -94 -225 -49 -49 -193 -130 -232 -130
-24 0 -45 -28 -31 -42 15 -15 74 3 167 49 130 66 235 201 235 303 l0 30 79 0
c84 0 91 -4 91 -53 0 -43 57 -142 111 -193 64 -60 125 -97 204 -124 72 -25 85
-25 85 -1 0 13 -16 24 -62 41 -189 67 -287 176 -296 330 -8 150 66 260 229
339 47 22 92 41 101 41 24 0 44 28 30 42 -15 15 -76 -3 -165 -50 -82 -43 -158
-109 -193 -168 -23 -40 -32 -64 -48 -136 -6 -28 -7 -28 -85 -28 l-78 0 -6 45
c-9 65 -52 142 -112 200 -73 72 -263 163 -288 139z"/>
<path d="M2893 1700 c-29 -12 -29 -39 -2 -93 98 -192 285 -346 481 -396 217
-55 453 -25 633 81 130 77 305 286 309 369 2 55 -19 57 -141 17 -139 -47 -242
-66 -430 -79 -266 -19 -557 13 -745 81 -45 17 -82 30 -82 29 -1 0 -11 -4 -23
-9z"/>
<path d="M4419 570 c-28 -17 -43 -66 -30 -99 13 -30 174 -174 403 -360 l137
-111 58 0 c69 0 83 10 83 61 0 33 -6 43 -52 81 -122 102 -407 341 -461 388
-60 51 -99 63 -138 40z"/>
<path d="M17559 572 c-8 -4 -87 -69 -175 -144 -87 -75 -211 -179 -274 -230
-121 -99 -142 -129 -122 -173 11 -23 17 -25 78 -25 l66 0 131 107 c134 108
310 259 372 318 51 48 48 112 -6 140 -30 16 -45 17 -70 7z"/>
</g>
</svg>
