<?xml version="1.0" standalone="no"?>
<!DOCTYPE svg PUBLIC "-//W3C//DTD SVG 20010904//EN"
 "http://www.w3.org/TR/2001/REC-SVG-20010904/DTD/svg10.dtd">
<svg version="1.0" xmlns="http://www.w3.org/2000/svg"
 width="393.000000pt" height="400.000000pt" viewBox="0 0 393.000000 400.000000"
 preserveAspectRatio="xMidYMid meet">

<g transform="translate(0.000000,400.000000) scale(0.100000,-0.100000)"
fill="#000000" stroke="none">
<path d="M2390 3836 c-12 -12 -80 -17 -315 -27 -165 -6 -331 -8 -369 -5 -60 6
-72 4 -90 -13 -30 -27 -868 -411 -898 -411 -24 0 -51 -22 -59 -47 -9 -27 -285
-307 -317 -320 -37 -15 -55 -49 -40 -76 11 -21 -114 -482 -138 -508 -21 -23
-17 -47 11 -73 38 -36 218 -478 210 -516 -11 -48 50 -91 82 -59 9 9 72 -2 245
-41 197 -45 236 -57 251 -77 19 -24 56 -30 73 -13 14 14 338 -75 375 -103 32
-23 61 -12 81 30 18 38 154 154 172 147 8 -3 24 0 36 6 17 9 37 6 103 -16 45
-15 95 -38 110 -50 16 -13 35 -24 42 -24 17 0 359 -356 364 -378 5 -25 32 -52
51 -52 24 0 190 -148 190 -169 0 -22 31 -51 54 -51 9 0 29 13 44 29 21 22 43
32 100 44 40 8 75 11 78 6 8 -13 58 -11 72 3 21 21 14 66 -13 84 -13 8 -29 13
-34 9 -13 -8 -104 182 -102 214 0 13 14 45 31 70 23 37 38 49 75 60 55 16 213
6 230 -14 5 -8 17 -14 25 -15 39 -5 52 2 66 36 23 56 120 200 139 207 32 13
112 8 125 -8 35 -42 116 7 90 55 -10 19 0 38 81 163 52 78 97 144 102 146 18
7 47 41 47 55 0 8 -11 27 -23 43 -20 23 -28 58 -50 198 -22 148 -24 172 -11
186 8 8 14 22 14 30 0 23 -29 59 -48 59 -24 1 -378 625 -374 660 4 37 -19 63
-56 62 -24 0 -115 50 -379 210 -191 115 -360 223 -375 239 -30 32 -56 37 -78
15z m-2 -83 c26 -25 34 -47 67 -196 20 -92 35 -170 33 -173 -6 -6 -758 358
-758 367 0 3 123 11 273 16 149 5 291 10 314 11 33 2 48 -4 71 -25z m404 -189
c178 -107 327 -200 332 -205 6 -5 -95 -9 -261 -9 -182 0 -274 4 -278 11 -4 6
-16 14 -28 18 -18 7 -27 33 -59 172 -35 156 -44 209 -33 209 2 0 150 -88 327
-196z m-1172 157 c0 -5 -61 -104 -136 -220 -122 -188 -140 -212 -179 -231
l-43 -21 -239 42 c-131 23 -241 45 -246 49 -7 6 806 388 831 389 6 1 12 -3 12
-8z m448 -186 c193 -93 349 -171 347 -173 -6 -6 -530 -63 -554 -60 -21 3 -30
22 -86 184 -81 233 -79 227 -67 223 5 -2 167 -80 360 -174z m-335 -51 l65
-191 -41 -6 c-144 -19 -368 -39 -373 -34 -3 3 56 103 132 221 77 118 142 212
145 208 3 -4 36 -93 72 -198z m722 -173 c-30 -26 -499 -302 -509 -298 -10 4
-92 235 -84 241 4 4 528 63 573 65 17 0 25 -3 20 -8z m721 -12 c7 -12 -97
-299 -109 -299 -4 0 -112 70 -240 155 l-232 155 287 0 c197 0 289 -3 294 -11z
m-2148 -51 c143 -25 242 -47 242 -54 0 -15 -406 -430 -414 -423 -5 5 -106 490
-106 511 0 13 24 10 278 -34z m1436 -45 c-68 -222 -222 -668 -230 -668 -17 0
-274 389 -264 399 6 6 10 17 10 26 0 9 97 74 253 167 138 84 253 153 254 153
1 0 -9 -35 -23 -77z m-1754 59 c0 -7 83 -414 95 -469 4 -19 -21 -9 -192 74
-109 53 -202 99 -207 104 -13 12 11 40 154 174 124 117 150 137 150 117z
m2105 -149 c129 -86 235 -160 235 -165 0 -12 -137 -368 -144 -375 -4 -4 -11
-2 -16 3 -5 5 -77 159 -160 343 -83 183 -153 337 -156 342 -3 5 -3 9 0 9 4 0
112 -70 241 -157z m580 -123 c86 -151 167 -290 178 -309 14 -23 16 -32 6 -26
-17 11 -462 306 -468 311 -5 5 98 275 112 292 5 7 11 11 12 10 1 -2 73 -127
160 -278z m-1544 150 c40 -111 46 -140 28 -140 -8 0 -288 117 -449 188 -35 16
-33 16 150 38 102 12 196 21 209 20 21 -1 29 -14 62 -106z m842 -241 c87 -193
156 -353 153 -357 -4 -3 -124 -14 -269 -23 -221 -15 -264 -16 -276 -5 -11 12
5 70 105 375 65 199 120 361 123 361 4 0 77 -158 164 -351z m-1085 167 c133
-56 244 -105 247 -108 3 -2 -58 -40 -136 -83 -119 -66 -143 -76 -162 -68 -25
12 -213 363 -194 363 1 0 111 -47 245 -104z m-196 -101 c113 -223 116 -198
-48 -460 -72 -115 -138 -211 -146 -213 -9 -2 -71 70 -160 185 -198 257 -203
217 52 482 177 184 196 200 208 184 8 -10 50 -90 94 -178z m-635 -233 c2 -5
-494 -273 -539 -290 -16 -7 -7 34 53 248 50 180 64 217 82 226 18 8 54 -6 212
-83 105 -52 191 -97 192 -101z m2799 -129 c-3 -3 -619 -43 -622 -40 -1 1 30
84 68 184 l70 182 243 -162 c134 -89 242 -163 241 -164z m-1514 98 c76 -111
138 -211 138 -221 0 -20 -179 -299 -191 -300 -4 0 -99 122 -212 271 -174 228
-205 273 -198 292 12 32 276 178 304 168 11 -4 83 -99 159 -210z m-317 -251
c103 -135 195 -256 205 -270 l18 -26 -341 48 c-187 26 -345 52 -350 57 -12 12
253 442 270 439 6 -2 96 -113 198 -248z m-1041 16 c-54 -119 -104 -218 -109
-220 -6 -2 -85 32 -176 76 l-164 80 45 23 c25 13 146 77 270 143 124 66 226
118 228 117 2 -2 -41 -100 -94 -219z m185 -166 c26 -173 46 -317 45 -319 -6
-8 -263 195 -259 205 2 6 -3 23 -10 37 -13 25 -7 40 78 227 51 111 93 193 95
183 2 -10 25 -160 51 -333z m146 139 c83 -107 135 -183 135 -197 0 -13 11 -34
25 -47 19 -17 51 -94 120 -292 52 -147 95 -270 95 -272 0 -11 -52 25 -228 158
l-197 149 -48 329 c-27 180 -51 337 -54 348 -8 30 2 18 152 -176z m2504 -25
c-32 -81 -60 -149 -63 -151 -2 -2 -120 54 -262 126 -199 100 -252 130 -229
131 17 1 145 10 285 20 140 9 272 18 292 19 l36 1 -59 -146z m119 -56 c26
-179 27 -188 7 -188 -13 0 -131 54 -144 66 -6 5 101 274 108 274 4 0 17 -69
29 -152z m-808 128 c0 -11 -72 -451 -74 -453 -1 -2 -106 93 -234 210 -182 167
-227 213 -210 215 82 14 518 37 518 28z m225 -221 c81 -108 146 -197 144 -199
-11 -9 -385 -62 -392 -56 -7 6 39 343 58 428 12 50 41 23 190 -173z m156 70
c256 -129 238 -110 199 -201 -18 -41 -18 -41 -89 -50 l-70 -10 -118 155 c-64
86 -128 171 -141 189 -13 17 -22 32 -18 32 3 0 110 -52 237 -115z m-689 -149
c152 -140 204 -193 201 -206 -3 -11 -83 -66 -188 -129 -169 -103 -215 -125
-215 -102 0 5 -16 149 -35 321 -19 172 -35 323 -35 337 l0 24 34 -28 c18 -15
126 -113 238 -217z m-283 -86 c19 -171 31 -313 29 -316 -3 -2 -53 65 -113 151
-141 203 -140 198 -36 357 42 65 78 118 81 118 4 0 21 -140 39 -310z m-1850
181 c104 -52 160 -86 163 -98 3 -11 -25 -79 -68 -164 -40 -79 -73 -142 -73
-138 -1 3 -44 108 -96 235 -93 225 -100 244 -90 244 3 0 77 -36 164 -79z
m1216 -122 c165 -22 306 -42 314 -45 14 -4 10 -9 -169 -200 -117 -125 -106
-127 -291 73 -84 91 -164 179 -177 195 l-25 29 24 -5 c13 -3 159 -24 324 -47z
m1988 -30 c-26 -9 -143 -22 -143 -15 0 3 7 23 16 45 l16 40 64 -32 c49 -24 60
-33 47 -38z m-2822 -97 l154 -117 14 -88 c7 -48 11 -90 7 -94 -3 -3 -112 18
-241 47 -212 48 -236 56 -241 76 -4 15 17 64 66 158 40 75 75 136 79 136 4 0
77 -53 162 -118z m723 -144 c59 -65 105 -121 102 -127 -18 -29 -144 -129 -154
-122 -10 6 -138 355 -177 480 -7 25 16 1 229 -231z m2150 190 c-59 -97 -176
-268 -183 -268 -6 0 -29 24 -51 54 l-40 53 27 71 27 70 86 15 c113 19 143 20
134 5z m-1713 -170 c-14 -86 -31 -162 -38 -169 -8 -8 -31 -5 -95 16 -45 15
-87 31 -91 35 -5 4 49 69 119 144 70 75 128 135 129 134 2 -2 -9 -74 -24 -160z
m209 -23 l111 -160 -83 -7 c-158 -12 -181 -10 -201 17 -16 23 -16 30 3 152 30
187 30 188 45 172 7 -8 63 -86 125 -174z m1230 156 c0 -5 -7 -25 -16 -46 l-15
-37 -29 38 -29 39 32 6 c49 10 57 10 57 0z m-93 -70 l43 -59 -17 -45 c-28 -75
-50 -73 -253 19 -94 42 -168 79 -165 82 3 3 281 52 345 61 3 0 24 -26 47 -58z
m-239 -126 c105 -48 178 -87 186 -100 13 -20 11 -27 -24 -85 -48 -78 -53 -83
-78 -76 -11 4 -73 77 -139 164 -126 165 -142 188 -127 180 5 -2 87 -40 182
-83z m-283 62 c12 -30 32 -303 24 -319 -5 -9 -9 -26 -9 -38 0 -11 -12 -38 -26
-59 -19 -30 -33 -40 -58 -43 -29 -3 -50 9 -177 109 -79 62 -144 119 -144 127
0 15 347 234 373 235 7 1 15 -5 17 -12z m184 -170 c72 -95 131 -176 131 -180
0 -4 -42 -4 -92 -1 -84 6 -96 9 -121 34 -25 25 -28 38 -37 136 -6 60 -12 126
-15 147 -3 20 -4 37 -2 37 2 0 63 -78 136 -173z m-1788 8 c83 -63 150 -115
147 -115 -2 0 -58 15 -124 33 -150 43 -179 65 -189 152 -5 40 -4 56 3 51 6 -4
79 -58 163 -121z m2269 32 c0 -4 -21 -7 -47 -5 -52 3 -56 12 -33 72 l10 28 35
-43 c19 -24 35 -48 35 -52z m-1149 -121 c26 -22 27 -30 38 -176 6 -84 10 -155
8 -157 -2 -2 -79 75 -171 171 l-167 175 93 4 c51 1 111 4 133 5 29 1 47 -5 66
-22z m227 -144 c72 -57 132 -107 132 -111 0 -4 -52 -28 -116 -54 -151 -60
-150 -60 -159 82 -3 58 -8 128 -12 155 -6 58 -19 64 155 -72z m152 -169 c0 -4
-7 -26 -16 -49 -22 -58 -45 -68 -125 -54 -35 6 -71 13 -79 16 -9 3 30 24 90
49 107 44 130 51 130 38z m91 -90 c19 -42 35 -80 37 -84 7 -16 -93 30 -105 48
-11 16 -10 28 3 66 9 26 19 47 23 47 4 0 23 -35 42 -77z m-220 -58 c49 -7 75
-34 67 -71 -6 -34 -32 -25 -93 32 -35 32 -52 53 -40 50 11 -3 41 -8 66 -11z
m223 -65 l39 -16 -71 -14 c-39 -7 -75 -12 -79 -11 -13 3 -2 44 15 58 18 13 33
10 96 -17z"/>
<path d="M2533 820 c-73 -29 -45 -140 35 -140 69 0 99 87 46 129 -29 23 -46
25 -81 11z"/>
<path d="M350 470 l0 -300 210 0 210 0 0 55 0 55 -145 0 -145 0 0 75 0 75 120
0 120 0 0 55 0 55 -120 0 -120 0 0 55 0 55 135 0 135 0 0 60 0 60 -200 0 -200
0 0 -300z"/>
<path d="M2153 743 l-33 -4 0 -232 c0 -205 2 -236 18 -267 35 -67 144 -98 242
-69 37 11 37 11 29 53 -5 22 -8 44 -9 48 0 4 -25 4 -55 1 -86 -9 -95 4 -95
139 l0 108 75 0 75 0 0 50 0 50 -75 0 -75 0 0 65 0 65 -32 -2 c-18 0 -48 -3
-65 -5z"/>
<path d="M945 625 c-5 -2 -27 -6 -47 -10 l-38 -6 0 -219 0 -220 65 0 65 0 0
175 0 175 38 0 c69 0 76 -18 81 -196 l3 -154 66 0 65 0 -5 169 c-6 185 -7 181
51 181 55 0 64 -24 69 -195 l5 -155 58 0 59 0 0 168 c0 154 -2 171 -22 212
-14 27 -36 50 -58 62 -45 24 -132 23 -186 -1 -39 -18 -41 -18 -75 0 -24 13
-55 18 -109 18 -41 0 -79 -2 -85 -4z"/>
<path d="M1704 611 c-48 -22 -101 -82 -114 -131 -26 -92 2 -212 61 -267 58
-53 168 -69 244 -34 81 36 125 113 125 216 0 102 -41 175 -121 216 -50 25
-140 25 -195 0z m163 -130 c45 -67 20 -191 -42 -207 -66 -16 -115 34 -115 119
0 84 35 129 94 125 33 -2 44 -9 63 -37z"/>
<path d="M3305 616 c-42 -18 -102 -88 -114 -133 -40 -144 20 -279 140 -313 46
-13 140 -13 196 1 l45 12 -7 51 c-3 28 -7 52 -9 53 -1 2 -18 -2 -37 -7 -50
-15 -126 -12 -159 5 -26 13 -50 42 -50 59 0 3 65 6 145 6 l145 0 0 53 c0 28
-5 69 -11 90 -13 47 -63 106 -106 123 -41 18 -139 17 -178 0z m132 -101 c11
-8 26 -28 31 -45 l11 -30 -85 0 c-90 0 -98 5 -68 48 28 40 76 52 111 27z"/>
<path d="M2500 395 l0 -225 65 0 65 0 0 225 0 225 -65 0 -65 0 0 -225z"/>
<path d="M2690 612 c0 -28 112 -328 150 -403 20 -38 22 -39 74 -39 l53 0 42
92 c34 74 131 337 131 355 0 2 -30 3 -66 1 l-66 -3 -43 -138 c-23 -76 -45
-140 -48 -143 -5 -5 -39 97 -93 274 -4 13 -134 18 -134 4z"/>
</g>
</svg>
